HIERARCHY
ROOT root
{
	OFFSET	0	13.1	24.9
	CHANNELS 6  Xposition Yposition Zposition Xrotation Yrotation Zrotation
	JOINT spine_1
	{
		OFFSET	0	9.99999	0
		CHANNELS 3  Xrotation Yrotation Zrotation
		JOINT spine_2
		{
			OFFSET	0	112	-10
			CHANNELS 3  Xrotation Yrotation Zrotation
			JOINT spine_3
			{
				OFFSET	0	206.5	19.3
				CHANNELS 3  Xrotation Yrotation Zrotation
				JOINT spine_4
				{
					OFFSET	0	110.4	14.6
					CHANNELS 3  Xrotation Yrotation Zrotation
					JOINT neck_1
					{
						OFFSET	0	71.8	-50.3
						CHANNELS 3  Xrotation Yrotation Zrotation
						JOINT neck_2
						{
							OFFSET	0	86.2	-25.8
							CHANNELS 3  Xrotation Yrotation Zrotation
							JOINT head_ee
							{
								OFFSET	0	179.8	-8.7
								CHANNELS 3  Xrotation Yrotation Zrotation
								End Site
								{
									OFFSET	1	0	0
								}
							}
						}
					}
					JOINT left_clavicle
					{
						OFFSET	-43.2	22.4	-70.8
						CHANNELS 3  Xrotation Yrotation Zrotation
						JOINT left_shoulder
						{
							OFFSET	-93.9	-5.79999	48.7
							CHANNELS 3  Xrotation Yrotation Zrotation
							JOINT left_elbow
							{
								OFFSET	-291.4	-30.8	15.2
								CHANNELS 3  Xrotation Yrotation Zrotation
								JOINT left_lowarm_twist
								{
									OFFSET	-110.7	-3.89999	13.6
									CHANNELS 3  Xrotation Yrotation Zrotation
									JOINT left_hand
									{
										OFFSET	-110.7	-3.89999	13.6
										CHANNELS 3  Xrotation Yrotation Zrotation
										JOINT left_ee
										{
											OFFSET	-80.8	-5.10001	12.1
											CHANNELS 3  Xrotation Yrotation Zrotation
											End Site
											{
												OFFSET	1	0	0
											}
										}
									}
								}
							}
						}
					}
					JOINT right_clavicle
					{
						OFFSET	43.2	22.4	-70.8
						CHANNELS 3  Xrotation Yrotation Zrotation
						JOINT right_shoulder
						{
							OFFSET	93.9	-5.79999	48.7
							CHANNELS 3  Xrotation Yrotation Zrotation
							JOINT right_elbow
							{
								OFFSET	291.4	-30.8	15.2
								CHANNELS 3  Xrotation Yrotation Zrotation
								JOINT right_lowarm_twist
								{
									OFFSET	110.7	-3.89999	13.6
									CHANNELS 3  Xrotation Yrotation Zrotation
									JOINT right_hand
									{
										OFFSET	110.7	-3.89999	13.6
										CHANNELS 3  Xrotation Yrotation Zrotation
										JOINT right_ee
										{
											OFFSET	80.8	-5.10001	12.1
											CHANNELS 3  Xrotation Yrotation Zrotation
											End Site
											{
												OFFSET	1	0	0
											}
										}
									}
								}
							}
						}
					}
				}
			}
		}
	}
	JOINT left_hip
	{
		OFFSET	-82.8	-127.5	0.300001
		CHANNELS 3  Xrotation Yrotation Zrotation
		JOINT left_knee
		{
			OFFSET	-28.2	-396.7	2.2
			CHANNELS 3  Xrotation Yrotation Zrotation
			JOINT left_ankle
			{
				OFFSET	-11.7	-411.3	35.4
				CHANNELS 3  Xrotation Yrotation Zrotation
				JOINT left_toes
				{
					OFFSET	0	-60	-88.6
					CHANNELS 3  Xrotation Yrotation Zrotation
					JOINT left_foot_ee
					{
						OFFSET	-22.5	-16.5	-42.2
						CHANNELS 3  Xrotation Yrotation Zrotation
						End Site
						{
							OFFSET	1	0	0
						}
					}
				}
			}
		}
	}
	JOINT right_hip
	{
		OFFSET	82.8	-127.5	0.300001
		CHANNELS 3  Xrotation Yrotation Zrotation
		JOINT right_knee
		{
			OFFSET	28.2	-396.7	2.2
			CHANNELS 3  Xrotation Yrotation Zrotation
			JOINT right_ankle
			{
				OFFSET	11.7	-411.3	35.4
				CHANNELS 3  Xrotation Yrotation Zrotation
				JOINT right_toes
				{
					OFFSET	0	-60	-88.6
					CHANNELS 3  Xrotation Yrotation Zrotation
					JOINT right_foot_ee
					{
						OFFSET	22.5	-16.5	-42.2
						CHANNELS 3  Xrotation Yrotation Zrotation
						End Site
						{
							OFFSET	1	0	0
						}
					}
				}
			}
		}
	}
}
MOTION
Frames: 6
Frame Time: 0.02
1372.05 701.618 -1475.22 17.896322143 60.1225736623 -22.4838818199 -3.83161 0.524626 4.29535 -3.82139 0.2505 4.31996 -3.78725 -0.945524 4.22283 -3.81203 -0.267393 4.31895 -12.0814 18.6477 -4.98985 -12.9942 38.5326 0.985462 -0.0 0.0 -0.0 -0.532698 7.28919 -0.0853479 14.6516 -18.5701 53.2943 6.03334 -71.4689 4.34284 10.87 0.254338 -1.36317 -0.0645668 8.89691 3.27728 -0.0 0.0 -0.0 13.87 26.5942 -27.6245 -25.0085 31.8773 -54.8929 0.599392 16.5374 -0.0871083 51.8575 1.10497 6.30836 2.71854 -30.1406 -27.2836 0.0 0.0 0.0 -25.1054 23.4049 15.8552 -24.4047 0.21741 3.71056 39.5977 6.7607 -4.82504 -20.5998 0.0 0.0 -0.0 0.0 -0.0 23.3579 29.8588 -3.32406 0.174375 0.00721984 0.0257853 -19.1445 6.10412 -2.97615 7.76853 -0.0 -0.0 0.0 0.0 0.0 
1301.9669071 712.984 -1498.54365515 13.8187468538 64.4086959751 -18.0783300647 -3.96195 0.827213 4.13951 -3.95259 0.562365 4.18365 -3.89571 -0.615234 4.17622 -3.92004 0.0514336 4.2209 -1.99979 16.8437 -9.03685 -0.671404 37.489 -7.71334 -0.0 0.0 -0.0 -1.55791 8.92107 -1.66984 4.92753 -21.4864 54.3603 5.29196 -69.0933 3.64478 6.55531 0.184412 -0.816594 1.01805 5.89439 9.16242 -0.0 0.0 -0.0 13.5952 26.4881 -26.9977 -20.8077 34.6942 -53.5677 0.744888 20.2538 -0.133048 52.0846 1.12206 6.33191 3.1391 -29.9847 -29.8931 0.0 0.0 0.0 -23.2736 20.6059 13.9358 -20.2563 0.292503 3.07857 35.0349 14.3829 -4.45404 -14.7516 0.0 0.0 -0.0 0.0 -0.0 24.326 28.8324 -4.57079 -3.57005 -0.130439 -0.532276 -17.9986 5.98891 -2.79513 5.75081 -0.0 -0.0 0.0 0.0 0.0 
1302.26366505 712.984 -1499.41711252 13.4716829186 63.7132970905 -17.6923936195 -3.96195 0.827213 4.13951 -3.95259 0.562365 4.18365 -3.89571 -0.615234 4.17622 -3.92004 0.0514336 4.2209 -1.99979 16.8437 -9.03685 -0.671404 37.489 -7.71334 -0.0 0.0 -0.0 -1.55791 8.92107 -1.66984 4.92753 -21.4864 54.3603 5.29196 -69.0933 3.64478 6.55531 0.184412 -0.816594 1.01805 5.89439 9.16242 -0.0 0.0 -0.0 13.5952 26.4881 -26.9977 -20.8077 34.6942 -53.5677 0.744888 20.2538 -0.133048 52.0846 1.12206 6.33191 3.1391 -29.9847 -29.8931 0.0 0.0 0.0 -23.2736 20.6059 13.9358 -20.2563 0.292503 3.07857 35.0349 14.3829 -4.45404 -14.7516 0.0 0.0 -0.0 0.0 -0.0 24.326 28.8324 -4.57079 -3.57005 -0.130439 -0.532276 -17.9986 5.98891 -2.79513 5.75081 -0.0 -0.0 0.0 0.0 0.0 
1282.04442303 713.4 -1508.33002588 15.1351066953 65.288897728 -19.1160413322 -3.98611 0.749069 4.21417 -3.97637 0.479641 4.2532 -3.92468 -0.71635 4.21985 -3.94952 -0.0415494 4.27991 1.8032 16.8307 -8.60967 3.74633 36.74 -8.69587 -0.0 0.0 -0.0 -1.57976 9.58873 -1.60553 3.45201 -21.7699 54.8078 4.4271 -65.4668 2.84662 5.34711 0.157471 -0.664611 1.19543 6.72442 10.6598 -0.0 0.0 -0.0 13.6913 26.4783 -27.2225 -20.0289 35.7811 -53.3768 0.751234 20.4122 -0.135253 51.858 1.10501 6.30841 3.34593 -30.3628 -31.2686 0.0 0.0 0.0 -21.8251 17.2246 11.9455 -21.4426 0.275706 3.25981 34.1665 15.5306 -4.38106 -12.6952 0.0 0.0 -0.0 0.0 -0.0 24.9768 28.4014 -5.41067 -5.69324 -0.192188 -0.852249 -22.1741 5.57465 -3.44099 4.10471 -0.0 -0.0 0.0 0.0 0.0 
1234.76022737 722.99 -1515.03934367 13.5582297572 67.1619109111 -17.5359507817 -3.84469 0.959281 4.32025 -3.83457 0.682698 4.3724 -3.7652 -0.541485 4.39209 -3.79207 0.158257 4.42245 0.99436 15.9957 -10.4554 2.97844 36.8423 -10.5665 -0.0 0.0 -0.0 -1.30138 11.9725 -0.769295 1.62135 -20.13 57.5073 3.69427 -61.3301 2.19094 3.41291 0.107684 -0.422562 1.28235 6.47164 11.1416 -0.0 0.0 -0.0 13.6072 26.3211 -27.0463 -18.3028 36.9889 -52.8522 0.839108 22.571 -0.167453 51.2776 1.06178 6.24795 3.32285 -30.4711 -31.1326 0.0 0.0 0.0 -22.8693 19.6144 10.4677 -21.0623 0.2815 3.20174 32.8861 17.3757 -4.27478 -13.1192 0.0 0.0 -0.0 0.0 -0.0 22.6322 27.9651 -5.58513 -5.85026 -0.196283 -0.875999 -20.3974 4.90433 -3.15534 4.04702 -0.0 -0.0 0.0 0.0 0.0 
1235.47543518 722.99 -1517.42722738 13.0254557131 66.1895401936 -16.9557847175 -3.84469 0.959281 4.32025 -3.83457 0.682698 4.3724 -3.7652 -0.541485 4.39209 -3.79207 0.158257 4.42245 0.99436 15.9957 -10.4554 2.97844 36.8423 -10.5665 -0.0 0.0 -0.0 -1.30138 11.9725 -0.769295 1.62135 -20.13 57.5073 3.69427 -61.3301 2.19094 3.41291 0.107684 -0.422562 1.28235 6.47164 11.1416 -0.0 0.0 -0.0 13.6072 26.3211 -27.0463 -18.3028 36.9889 -52.8522 0.839108 22.571 -0.167453 51.2776 1.06178 6.24795 3.32285 -30.4711 -31.1326 0.0 0.0 0.0 -22.8693 19.6144 10.4677 -21.0623 0.2815 3.20174 32.8861 17.3757 -4.27478 -13.1192 0.0 0.0 -0.0 0.0 -0.0 22.6322 27.9651 -5.58513 -5.85026 -0.196283 -0.875999 -20.3974 4.90433 -3.15534 4.04702 -0.0 -0.0 0.0 0.0 0.0 
